# xmcd
#
# Track frame offsets:
# 150
# 14203
# 31753
# 46785
# 69901
# 81788
# 85552
# 104944
# 119436
# 133904
# 146654
# 164423
# 178462
# 192759
# 219368
# 275840
#
# Disc length: 4455 seconds
#
# Revision: 0
# Processed by: cddbd v1.5.2PL0 Copyright (c) Steve Scherf et al.
# Submitted via: Audion 3.0.2 (http://www.panic.com/audion/)
#
DISCID=ef116510
DTITLE=Rappin 4Tay - Thats What You Thought
DYEAR=1900
DGENRE=
TTITLE0=Intro
TTITLE1=That's What You Thought
TTITLE2=Keep Your Game On The Charger
TTITLE3=Live from the 415
TTITLE4=A Whole Nother Level
TTITLE5=J * H Skit
TTITLE6=Business is Heavy
TTITLE7=Sorry I Took So Long
TTITLE8=Full Metal Jacket
TTITLE9=Helping Me, Hurting Me
TTITLE10=Highway
TTITLE11=I'll Take You There
TTITLE12=If I Forget Jesus
TTITLE13=Heavy Paper
TTITLE14=Live from the 415 (Extended)
TTITLE15=ShowTape
EXTD=
EXTT0=
EXTT1=
EXTT2=
EXTT3=
EXTT4=
EXTT5=
EXTT6=
EXTT7=
EXTT8=
EXTT9=
EXTT10=
EXTT11=
EXTT12=
EXTT13=
EXTT14=
EXTT15=
PLAYORDER=
